<svg version="1.1" id="Layer_1" xmlns="http://www.w3.org/2000/svg" xmlns:xlink="http://www.w3.org/1999/xlink" x="0px" y="0px"
	 width="100%" viewBox="0 0 400 400" enable-background="new 0 0 400 400" xml:space="preserve">
<path fill="#000000" opacity="0.000000" stroke="none" 
	d="
M228.000000,401.000000 
	C152.023590,401.000000 76.547180,401.000000 1.035385,401.000000 
	C1.035385,267.731934 1.035385,134.463837 1.035385,1.097874 
	C134.226349,1.097874 267.452820,1.097874 400.839630,1.097874 
	C400.839630,134.333176 400.839630,267.666565 400.839630,401.000000 
	C343.463898,401.000000 285.981964,401.000000 228.000000,401.000000 
M61.980659,70.980820 
	C61.980659,70.980820 61.976143,70.912476 61.429771,71.033188 
	C61.257038,71.347008 61.084301,71.660828 60.978897,71.979446 
	C60.978897,71.979446 60.971436,71.912354 60.425121,72.026558 
	C60.253376,72.339462 60.081631,72.652359 59.976368,72.976501 
	C59.976368,72.976501 59.973766,72.909126 59.352219,73.052902 
	C59.124638,73.407829 58.897053,73.762749 58.183048,74.399788 
	C58.086803,74.952187 57.990555,75.504578 57.520397,76.116005 
	C57.260586,76.235115 57.137703,76.437363 56.513660,77.064133 
	C54.343811,79.529442 52.060131,81.904503 50.022434,84.474594 
	C35.884312,102.306580 25.568987,122.345131 18.898825,143.902023 
	C14.551496,157.951889 11.733730,172.719101 10.303727,187.367340 
	C8.410209,206.763596 9.748122,226.427368 14.466742,245.337692 
	C17.918396,259.170532 23.603500,272.523010 29.123119,285.743042 
	C35.686096,301.461975 45.323376,315.335999 57.155460,327.642853 
	C64.547104,335.331085 71.273369,343.813110 79.433273,350.567749 
	C88.629768,358.180511 98.753593,364.858795 109.125053,370.808868 
	C117.748741,375.756287 127.148941,379.506104 136.500641,382.994263 
	C153.017944,389.155151 169.999084,393.581665 188.256195,394.717468 
	C197.169006,394.764069 206.081802,394.810638 215.838669,394.951752 
	C217.889526,394.647491 219.948563,394.389526 221.989456,394.028900 
	C225.705307,393.372345 229.410416,392.654846 233.958832,391.978455 
	C252.662994,389.598358 270.254059,383.365631 287.057709,375.252625 
	C300.879608,368.579285 313.601013,359.875122 325.775604,349.638794 
	C326.215210,349.089111 326.654785,348.539459 326.996246,347.994598 
	C326.996246,347.994598 327.000885,348.092743 327.677277,348.020477 
	C328.476105,347.362793 329.274902,346.705109 330.014587,346.018524 
	C330.014587,346.018524 330.026428,346.083282 330.573303,345.965302 
	C330.742188,345.650330 330.911072,345.335358 331.012756,345.013306 
	C331.012756,345.013306 331.015167,345.080811 331.563782,344.959503 
	C331.736511,344.644043 331.909241,344.328583 332.011627,344.011749 
	C332.011627,344.011749 332.012177,344.082092 332.561066,343.958374 
	C332.734650,343.642700 332.908234,343.326996 333.014374,343.017456 
	C333.014374,343.017456 333.030212,343.083252 333.739044,343.034851 
	C337.185974,339.365479 340.632904,335.696075 344.014404,332.011902 
	C344.014404,332.011902 344.010620,332.078857 344.557495,331.954376 
	C344.730621,331.639709 344.903748,331.325043 345.008972,331.008453 
	C345.008972,331.008453 345.014282,331.076202 345.563202,330.961609 
	C345.735291,330.646973 345.907379,330.332367 346.015778,330.011383 
	C346.015778,330.011383 346.039032,330.071045 346.684357,329.884247 
	C348.052124,328.005890 349.419891,326.127533 351.033142,323.571869 
	C353.041382,321.174805 355.234741,318.907379 357.022095,316.355591 
	C361.762238,309.588196 367.064453,303.073456 370.784698,295.766602 
	C376.069366,285.387115 380.744751,274.597626 384.536407,263.589264 
	C387.580475,254.751419 388.924103,245.327911 391.744446,235.800919 
	C392.167999,234.794571 392.907349,233.806610 392.967133,232.779114 
	C393.707001,220.064941 394.433197,207.348419 394.941406,194.623657 
	C395.042206,192.098892 394.208740,189.536819 393.963348,186.089325 
	C392.953247,178.970123 391.943146,171.850922 390.966248,163.930450 
	C387.827148,147.803314 382.179626,132.580673 375.018982,117.808540 
	C365.579224,98.334648 353.044617,81.049393 337.842712,65.863503 
	C325.460907,53.494736 311.308197,43.346134 295.844543,34.783695 
	C279.232971,25.585670 261.815155,19.101261 243.403122,15.109931 
	C236.424774,13.597178 229.241257,13.030849 221.763000,11.281917 
	C209.167679,11.258861 196.572357,11.235805 183.140305,11.047473 
	C177.743454,12.042320 172.311081,12.877355 166.957581,14.067207 
	C157.499161,16.169407 147.696548,17.480331 138.754395,20.962288 
	C126.698013,25.656883 115.293236,32.039307 103.657898,37.796593 
	C92.869560,43.134781 83.469635,50.396019 74.388123,59.042362 
	C73.899757,59.351089 73.411392,59.659821 72.986557,59.982586 
	C72.986557,59.982586 72.979485,59.917904 72.422760,60.014717 
	C72.251801,60.331722 72.080849,60.648731 71.976105,60.975307 
	C71.976105,60.975307 71.968170,60.908875 71.423683,61.031445 
	C71.253059,61.345119 71.082436,61.658794 70.978935,61.978935 
	C70.978935,61.978935 70.972748,61.911781 70.424934,62.031452 
	C70.254356,62.346798 70.083778,62.662144 69.981667,62.981606 
	C69.981667,62.981606 69.978127,62.913105 69.426865,63.031010 
	C69.256668,63.348316 69.086472,63.665623 68.985611,63.985287 
	C68.985611,63.985287 68.983276,63.915936 68.433342,64.035889 
	C68.260994,64.351997 68.088638,64.668098 67.986511,64.986153 
	C67.986511,64.986153 67.986023,64.915909 67.438118,65.040314 
	C67.263786,65.355255 67.089462,65.670204 66.985672,65.985779 
	C66.985672,65.985779 66.984505,65.915253 66.437256,66.040436 
	C66.263199,66.355194 66.089149,66.669960 65.985596,66.985626 
	C65.985596,66.985626 65.984657,66.915123 65.437195,67.040199 
	C65.263039,67.355042 65.088882,67.669884 64.984734,67.985367 
	C64.984734,67.985367 64.982216,67.915398 64.430550,68.032692 
	C64.259094,68.349731 64.087639,68.666771 63.985863,68.985840 
	C63.985863,68.985840 63.984066,68.916161 63.432526,69.032425 
	C63.259468,69.348686 63.086414,69.664948 62.982967,69.983086 
	C62.982967,69.983086 62.980389,69.913498 62.431652,70.032509 
	C62.258526,70.347382 62.085400,70.662262 61.980659,70.980820 
z"/>
<path fill="#54E0B3" opacity="1.000000" stroke="none" 
	d="
M187.799835,393.933777 
	C169.999084,393.581665 153.017944,389.155151 136.500641,382.994263 
	C127.148941,379.506104 117.748741,375.756287 109.125053,370.808868 
	C98.753593,364.858795 88.629768,358.180511 79.433273,350.567749 
	C71.273369,343.813110 64.547104,335.331085 57.155460,327.642853 
	C45.323376,315.335999 35.686096,301.461975 29.123119,285.743042 
	C23.603500,272.523010 17.918396,259.170532 14.466742,245.337692 
	C9.748122,226.427368 8.410209,206.763596 10.303727,187.367340 
	C11.733730,172.719101 14.551496,157.951889 18.898825,143.902023 
	C25.568987,122.345131 35.884312,102.306580 50.022434,84.474594 
	C52.060131,81.904503 54.343811,79.529442 56.959000,76.877388 
	C57.404343,76.690643 57.855270,76.532166 57.855270,76.532166 
	C57.855270,76.532166 57.894302,76.056976 57.894302,76.056976 
	C57.990555,75.504578 58.086803,74.952187 58.745163,74.176788 
	C59.529438,73.605560 59.751598,73.257339 59.973763,72.909126 
	C59.973766,72.909126 59.976368,72.976501 60.227318,72.930412 
	C60.642654,72.560333 60.807045,72.236343 60.971436,71.912354 
	C60.971436,71.912354 60.978897,71.979446 61.222527,71.922516 
	C61.636154,71.547890 61.806149,71.230186 61.976143,70.912476 
	C61.976143,70.912476 61.980659,70.980820 62.221397,70.921585 
	C62.634892,70.546066 62.807644,70.229782 62.980392,69.913498 
	C62.980389,69.913498 62.982967,69.983086 63.219368,69.917572 
	C63.631866,69.540092 63.807964,69.228127 63.984062,68.916161 
	C63.984066,68.916161 63.985863,68.985840 64.222511,68.918930 
	C64.633514,68.539818 64.807869,68.227608 64.982216,67.915398 
	C64.982216,67.915398 64.984734,67.985367 65.217400,67.913101 
	C65.628265,67.532272 65.806458,67.223694 65.984657,66.915123 
	C65.984657,66.915123 65.985596,66.985626 66.219009,66.915207 
	C66.629784,66.534943 66.807144,66.225098 66.984505,65.915253 
	C66.984505,65.915253 66.985672,65.985779 67.217911,65.914429 
	C67.628777,65.534019 67.807404,65.224968 67.986023,64.915909 
	C67.986023,64.915909 67.986511,64.986153 68.222244,64.919373 
	C68.633080,64.540367 68.808182,64.228157 68.983276,63.915939 
	C68.983276,63.915936 68.985611,63.985287 69.224083,63.920555 
	C69.634415,63.541588 69.806267,63.227345 69.978127,62.913105 
	C69.978127,62.913105 69.981667,62.981606 70.225296,62.923439 
	C70.636871,62.547443 70.804810,62.229610 70.972748,61.911781 
	C70.972748,61.911781 70.978935,61.978935 71.227005,61.928177 
	C71.639435,61.554573 71.803802,61.231724 71.968170,60.908875 
	C71.968170,60.908875 71.976105,60.975307 72.231400,60.937012 
	C72.650955,60.571777 72.815224,60.244843 72.979492,59.917908 
	C72.979485,59.917904 72.986557,59.982586 73.263290,59.970974 
	C74.033295,59.614529 74.526573,59.269699 75.019844,58.924866 
	C83.469635,50.396019 92.869560,43.134781 103.657898,37.796593 
	C115.293236,32.039307 126.698013,25.656883 138.754395,20.962288 
	C147.696548,17.480331 157.499161,16.169407 166.957581,14.067207 
	C172.311081,12.877355 177.743454,12.042320 183.925903,11.304127 
	C197.191406,11.718231 209.671341,11.875684 222.151260,12.033136 
	C229.241257,13.030849 236.424774,13.597178 243.403122,15.109931 
	C261.815155,19.101261 279.232971,25.585670 295.844543,34.783695 
	C311.308197,43.346134 325.460907,53.494736 337.842712,65.863503 
	C353.044617,81.049393 365.579224,98.334648 375.018982,117.808540 
	C382.179626,132.580673 387.827148,147.803314 390.682251,164.605835 
	C391.347321,172.506012 392.296326,179.730774 393.202576,187.424698 
	C392.447357,203.983994 391.734833,220.074142 391.022308,236.164291 
	C388.924103,245.327911 387.580475,254.751419 384.536407,263.589264 
	C380.744751,274.597626 376.069366,285.387115 370.784698,295.766602 
	C367.064453,303.073456 361.762238,309.588196 357.022095,316.355591 
	C355.234741,318.907379 353.041382,321.174805 350.594971,323.972473 
	C348.784210,326.272400 347.411621,328.171722 346.039032,330.071045 
	C346.039032,330.071045 346.015778,330.011383 345.777008,330.077942 
	C345.363586,330.455048 345.188934,330.765625 345.014282,331.076202 
	C345.014282,331.076202 345.008972,331.008453 344.781311,331.088562 
	C344.372620,331.472076 344.191620,331.775452 344.010620,332.078857 
	C344.010620,332.078857 344.014404,332.011902 343.699951,332.037598 
	C339.933716,335.736603 336.481964,339.409943 333.030212,343.083252 
	C333.030212,343.083252 333.014374,343.017456 332.787567,343.096191 
	C332.377899,343.477356 332.195038,343.779724 332.012177,344.082092 
	C332.012177,344.082092 332.011627,344.011749 331.783447,344.089478 
	C331.375244,344.471741 331.195190,344.776276 331.015137,345.080811 
	C331.015167,345.080811 331.012756,345.013306 330.770264,345.072021 
	C330.360687,345.448242 330.193573,345.765778 330.026428,346.083282 
	C330.026428,346.083282 330.014587,346.018524 329.700897,345.987915 
	C328.591766,346.669098 327.796326,347.380920 327.000885,348.092743 
	C327.000885,348.092743 326.996246,347.994598 326.795654,348.105042 
	C326.153778,348.737396 325.712524,349.259308 325.271271,349.781219 
	C313.601013,359.875122 300.879608,368.579285 287.057709,375.252625 
	C270.254059,383.365631 252.662994,389.598358 233.218903,391.772522 
	C226.622925,392.232910 220.766861,392.899261 214.587418,393.583771 
	C213.621216,393.673370 212.978394,393.744843 211.930786,393.651611 
	C204.914200,393.599091 198.302414,393.711273 191.303741,393.758789 
	C189.877838,393.774017 188.838837,393.853912 187.799835,393.933777 
M125.175026,189.376648 
	C120.887535,189.674469 116.585976,189.841248 112.315727,190.299683 
	C105.236969,191.059586 101.040245,195.549637 98.814926,201.857224 
	C96.583214,208.182953 97.450241,214.044510 101.956108,219.483170 
	C108.085457,226.881363 115.888641,226.636047 124.029556,226.304062 
	C124.382668,241.281479 124.132431,256.307068 125.322609,271.217682 
	C126.000900,279.715332 127.937363,288.486816 131.243820,296.317261 
	C136.938156,309.802673 149.323044,314.837921 162.853714,316.922363 
	C188.782791,320.916748 214.687241,319.767303 240.453400,315.353729 
	C249.786835,313.754913 259.138214,311.900787 268.206635,309.230225 
	C275.316711,307.136353 280.223328,302.115448 280.813843,294.092926 
	C281.770569,281.096008 272.781616,273.279724 259.626892,275.403931 
	C244.010651,277.925568 228.423965,280.827637 212.710526,282.482849 
	C201.525970,283.660980 190.128662,283.577209 178.872711,283.055481 
	C171.248352,282.702087 166.682892,277.445862 165.027435,269.995544 
	C164.415283,267.240570 163.828278,264.421600 163.747452,261.616913 
	C163.373383,248.638107 163.181412,235.654053 163.827057,222.623047 
	C182.647888,221.276199 201.489044,220.157349 220.280518,218.481323 
	C229.002975,217.703384 235.253754,206.720673 234.121429,198.071472 
	C232.924911,188.931900 219.446213,181.750214 209.886429,182.667465 
	C200.996719,183.520432 192.073212,184.016800 183.167679,184.710190 
	C177.394302,185.159683 171.626495,185.681000 165.988159,185.312042 
	C167.623199,173.443405 169.247131,161.573227 170.896423,149.706573 
	C172.498123,138.182236 174.125809,126.661507 176.694641,114.979218 
	C192.381027,114.135071 208.081116,113.487625 223.750351,112.397095 
	C243.417114,111.028328 263.060272,109.317001 282.710236,107.711838 
	C291.337067,107.007141 299.505646,99.239304 298.643066,88.335831 
	C297.972229,79.856178 290.610107,72.577972 281.626923,72.868111 
	C271.866150,73.183372 262.117188,74.010368 252.377136,74.789940 
	C232.561432,76.375946 212.761948,78.167274 192.943222,79.712708 
	C170.141281,81.490776 147.330307,83.159996 124.514328,84.748352 
	C111.615227,85.646332 104.353500,100.104759 111.425262,110.967720 
	C117.305222,119.999954 125.956612,119.573997 134.562210,119.015800 
	C131.692902,142.389511 128.823593,165.763229 125.175026,189.376648 
z"/>
<path fill="#BACEC8" opacity="1.000000" stroke="none" 
	d="
M391.383362,235.982605 
	C391.734833,220.074142 392.447357,203.983994 393.342468,187.431732 
	C393.525116,186.969620 393.806091,186.991943 393.806091,186.991943 
	C394.208740,189.536819 395.042206,192.098892 394.941406,194.623657 
	C394.433197,207.348419 393.707001,220.064941 392.967133,232.779114 
	C392.907349,233.806610 392.167999,234.794571 391.383362,235.982605 
z"/>
<path fill="#B2D3C8" opacity="1.000000" stroke="none" 
	d="
M221.957123,11.657526 
	C209.671341,11.875684 197.191406,11.718231 184.344269,11.386765 
	C196.572357,11.235805 209.167679,11.258861 221.957123,11.657526 
z"/>
<path fill="#C2D9D1" opacity="1.000000" stroke="none" 
	d="
M393.884705,186.540634 
	C393.806091,186.991943 393.525116,186.969620 393.385223,186.962585 
	C392.296326,179.730774 391.347321,172.506012 390.665680,165.006470 
	C391.943146,171.850922 392.953247,178.970123 393.884705,186.540634 
z"/>
<path fill="#ABCFC3" opacity="1.000000" stroke="none" 
	d="
M214.910812,393.565613 
	C220.766861,392.899261 226.622925,392.232910 232.799484,391.764679 
	C229.410416,392.654846 225.705307,393.372345 221.989456,394.028900 
	C219.948563,394.389526 217.889526,394.647491 215.395767,394.581604 
	C214.938843,393.996155 214.924835,393.780884 214.910812,393.565613 
z"/>
<path fill="#A6CABE" opacity="1.000000" stroke="none" 
	d="
M333.384644,343.059052 
	C336.481964,339.409943 339.933716,335.736603 343.732635,332.044983 
	C340.632904,335.696075 337.185974,339.365479 333.384644,343.059052 
z"/>
<path fill="#BECBC7" opacity="1.000000" stroke="none" 
	d="
M214.587418,393.583771 
	C214.924835,393.780884 214.938843,393.996155 214.973740,394.534302 
	C206.081802,394.810638 197.169006,394.764069 188.028015,394.325623 
	C188.838837,393.853912 189.877838,393.774017 191.799637,393.807190 
	C199.233490,393.885559 205.784531,393.850922 212.335587,393.816284 
	C212.978394,393.744843 213.621216,393.673370 214.587418,393.583771 
z"/>
<path fill="#A6CABE" opacity="1.000000" stroke="none" 
	d="
M346.361694,329.977661 
	C347.411621,328.171722 348.784210,326.272400 350.472260,324.311157 
	C349.419891,326.127533 348.052124,328.005890 346.361694,329.977661 
z"/>
<path fill="#A6CABE" opacity="1.000000" stroke="none" 
	d="
M327.339081,348.056610 
	C327.796326,347.380920 328.591766,346.669098 329.730469,346.002350 
	C329.274902,346.705109 328.476105,347.362793 327.339081,348.056610 
z"/>
<path fill="#A6CABE" opacity="1.000000" stroke="none" 
	d="
M325.523438,349.710022 
	C325.712524,349.259308 326.153778,348.737396 326.844727,348.102631 
	C326.654785,348.539459 326.215210,349.089111 325.523438,349.710022 
z"/>
<path fill="#AACEC3" opacity="1.000000" stroke="none" 
	d="
M74.703979,58.983612 
	C74.526573,59.269699 74.033295,59.614529 73.231522,59.963955 
	C73.411392,59.659821 73.899757,59.351089 74.703979,58.983612 
z"/>
<path fill="#AACEC3" opacity="1.000000" stroke="none" 
	d="
M57.707352,76.086487 
	C57.894302,76.056976 57.855270,76.532166 57.855270,76.532166 
	C57.855270,76.532166 57.404343,76.690643 57.278046,76.706703 
	C57.137703,76.437363 57.260586,76.235115 57.707352,76.086487 
z"/>
<path fill="#AACEC3" opacity="1.000000" stroke="none" 
	d="
M70.698837,61.971619 
	C70.804810,62.229610 70.636871,62.547443 70.191071,62.921379 
	C70.083778,62.662144 70.254356,62.346798 70.698837,61.971619 
z"/>
<path fill="#AACEC3" opacity="1.000000" stroke="none" 
	d="
M72.701126,59.966312 
	C72.815224,60.244843 72.650955,60.571777 72.198288,60.932228 
	C72.080849,60.648731 72.251801,60.331722 72.701126,59.966312 
z"/>
<path fill="#A6CABE" opacity="1.000000" stroke="none" 
	d="
M330.299866,346.024292 
	C330.193573,345.765778 330.360687,345.448242 330.803894,345.075531 
	C330.911072,345.335358 330.742188,345.650330 330.299866,346.024292 
z"/>
<path fill="#A6CABE" opacity="1.000000" stroke="none" 
	d="
M331.289459,345.020142 
	C331.195190,344.776276 331.375244,344.471741 331.818634,344.090179 
	C331.909241,344.328583 331.736511,344.644043 331.289459,345.020142 
z"/>
<path fill="#A6CABE" opacity="1.000000" stroke="none" 
	d="
M332.286621,344.020233 
	C332.195038,343.779724 332.377899,343.477356 332.821289,343.093140 
	C332.908234,343.326996 332.734650,343.642700 332.286621,344.020233 
z"/>
<path fill="#AACEC3" opacity="1.000000" stroke="none" 
	d="
M71.695923,60.970161 
	C71.803802,61.231724 71.639435,61.554573 71.193436,61.924950 
	C71.082436,61.658794 71.253059,61.345119 71.695923,60.970161 
z"/>
<path fill="#A6CABE" opacity="1.000000" stroke="none" 
	d="
M344.284058,332.016602 
	C344.191620,331.775452 344.372620,331.472076 344.815247,331.089539 
	C344.903748,331.325043 344.730621,331.639709 344.284058,332.016602 
z"/>
<path fill="#A6CABE" opacity="1.000000" stroke="none" 
	d="
M345.288757,331.018921 
	C345.188934,330.765625 345.363586,330.455048 345.808838,330.081116 
	C345.907379,330.332367 345.735291,330.646973 345.288757,331.018921 
z"/>
<path fill="#AACEC3" opacity="1.000000" stroke="none" 
	d="
M63.708294,68.974289 
	C63.807964,69.228127 63.631866,69.540092 63.184563,69.916634 
	C63.086414,69.664948 63.259468,69.348686 63.708294,68.974289 
z"/>
<path fill="#AACEC3" opacity="1.000000" stroke="none" 
	d="
M69.702499,62.972057 
	C69.806267,63.227345 69.634415,63.541588 69.189407,63.919376 
	C69.086472,63.665623 69.256668,63.348316 69.702499,62.972057 
z"/>
<path fill="#AACEC3" opacity="1.000000" stroke="none" 
	d="
M68.708313,63.975914 
	C68.808182,64.228157 68.633080,64.540367 68.187134,64.918396 
	C68.088638,64.668098 68.260994,64.351997 68.708313,63.975914 
z"/>
<path fill="#AACEC3" opacity="1.000000" stroke="none" 
	d="
M67.712067,64.978111 
	C67.807404,65.224968 67.628777,65.534019 67.182648,65.914108 
	C67.089462,65.670204 67.263786,65.355255 67.712067,64.978111 
z"/>
<path fill="#AACEC3" opacity="1.000000" stroke="none" 
	d="
M66.710876,65.977844 
	C66.807144,66.225098 66.629784,66.534943 66.183762,66.914749 
	C66.089149,66.669960 66.263199,66.355194 66.710876,65.977844 
z"/>
<path fill="#AACEC3" opacity="1.000000" stroke="none" 
	d="
M65.710922,66.977661 
	C65.806458,67.223694 65.628265,67.532272 65.182388,67.912781 
	C65.088882,67.669884 65.263039,67.355042 65.710922,66.977661 
z"/>
<path fill="#AACEC3" opacity="1.000000" stroke="none" 
	d="
M64.706383,67.974045 
	C64.807869,68.227608 64.633514,68.539818 64.187675,68.917915 
	C64.087639,68.666771 64.259094,68.349731 64.706383,67.974045 
z"/>
<path fill="#AACEC3" opacity="1.000000" stroke="none" 
	d="
M59.662991,72.981018 
	C59.751598,73.257339 59.529438,73.605560 58.988373,74.035728 
	C58.897053,73.762749 59.124638,73.407829 59.662991,72.981018 
z"/>
<path fill="#AACEC3" opacity="1.000000" stroke="none" 
	d="
M60.698280,71.969452 
	C60.807045,72.236343 60.642654,72.560333 60.194077,72.924789 
	C60.081631,72.652359 60.253376,72.339462 60.698280,71.969452 
z"/>
<path fill="#AACEC3" opacity="1.000000" stroke="none" 
	d="
M61.702957,70.972832 
	C61.806149,71.230186 61.636154,71.547890 61.188858,71.920120 
	C61.084301,71.660828 61.257038,71.347008 61.702957,70.972832 
z"/>
<path fill="#AACEC3" opacity="1.000000" stroke="none" 
	d="
M62.706024,69.973007 
	C62.807644,70.229782 62.634892,70.546066 62.187210,70.919739 
	C62.085400,70.662262 62.258526,70.347382 62.706024,69.973007 
z"/>
<path fill="#FAFDFC" opacity="1.000000" stroke="none" 
	d="
M162.924179,222.671875 
	C163.181412,235.654053 163.373383,248.638107 163.747452,261.616913 
	C163.828278,264.421600 164.415283,267.240570 165.027435,269.995544 
	C166.682892,277.445862 171.248352,282.702087 178.872711,283.055481 
	C190.128662,283.577209 201.525970,283.660980 212.710526,282.482849 
	C228.423965,280.827637 244.010651,277.925568 259.626892,275.403931 
	C272.781616,273.279724 281.770569,281.096008 280.813843,294.092926 
	C280.223328,302.115448 275.316711,307.136353 268.206635,309.230225 
	C259.138214,311.900787 249.786835,313.754913 240.453400,315.353729 
	C214.687241,319.767303 188.782791,320.916748 162.853714,316.922363 
	C149.323044,314.837921 136.938156,309.802673 131.243820,296.317261 
	C127.937363,288.486816 126.000900,279.715332 125.322609,271.217682 
	C124.132431,256.307068 124.382668,241.281479 124.446732,225.714874 
	C137.550659,224.307739 150.237411,223.489807 162.924179,222.671875 
z"/>
<path fill="#9060FE" opacity="1.000000" stroke="none" 
	d="
M134.972260,118.063095 
	C125.956612,119.573997 117.305222,119.999954 111.425262,110.967720 
	C104.353500,100.104759 111.615227,85.646332 124.514328,84.748352 
	C147.330307,83.159996 170.141281,81.490776 192.943222,79.712708 
	C212.761948,78.167274 232.561432,76.375946 252.377136,74.789940 
	C262.117188,74.010368 271.866150,73.183372 281.626923,72.868111 
	C290.610107,72.577972 297.972229,79.856178 298.643066,88.335831 
	C299.505646,99.239304 291.337067,107.007141 282.710236,107.711838 
	C263.060272,109.317001 243.417114,111.028328 223.750351,112.397095 
	C208.081116,113.487625 192.381027,114.135071 175.792786,115.045212 
	C161.584702,116.095169 148.278473,117.079132 134.972260,118.063095 
z"/>
<path fill="#9060FE" opacity="1.000000" stroke="none" 
	d="
M163.375610,222.647461 
	C150.237411,223.489807 137.550659,224.307739 124.499313,225.203323 
	C115.888641,226.636047 108.085457,226.881363 101.956108,219.483170 
	C97.450241,214.044510 96.583214,208.182953 98.814926,201.857224 
	C101.040245,195.549637 105.236969,191.059586 112.315727,190.299683 
	C116.585976,189.841248 120.887535,189.674469 126.032150,189.274658 
	C139.878250,188.171814 152.867233,187.170975 165.856201,186.170120 
	C171.626495,185.681000 177.394302,185.159683 183.167679,184.710190 
	C192.073212,184.016800 200.996719,183.520432 209.886429,182.667465 
	C219.446213,181.750214 232.924911,188.931900 234.121429,198.071472 
	C235.253754,206.720673 229.002975,217.703384 220.280518,218.481323 
	C201.489044,220.157349 182.647888,221.276199 163.375610,222.647461 
z"/>
<path fill="#F9FCFC" opacity="1.000000" stroke="none" 
	d="
M165.922180,185.741089 
	C152.867233,187.170975 139.878250,188.171814 126.421783,189.154816 
	C128.823593,165.763229 131.692902,142.389511 134.767242,118.539444 
	C148.278473,117.079132 161.584702,116.095169 175.316498,115.125198 
	C174.125809,126.661507 172.498123,138.182236 170.896423,149.706573 
	C169.247131,161.573227 167.623199,173.443405 165.922180,185.741089 
z"/>
<path fill="#ABCFC3" opacity="1.000000" stroke="none" 
	d="
M211.930786,393.651611 
	C205.784531,393.850922 199.233490,393.885559 192.186539,393.871826 
	C198.302414,393.711273 204.914200,393.599091 211.930786,393.651611 
z"/>
</svg>